<svg xmlns="http://www.w3.org/2000/svg" viewBox="0 0 2267.72 2267.72"><defs><style>.cls-1{fill:#f2f2f2;}.cls-2{fill:none;stroke:#446650;stroke-linecap:round;stroke-miterlimit:10;stroke-width:45px;}.cls-3{fill:#446650;}</style></defs><g id="Ebene_2" data-name="Ebene 2"><g id="Ebene_1-2" data-name="Ebene 1"><circle class="cls-1" cx="1133.86" cy="1133.86" r="1133.86"/><path class="cls-2" d="M741.54,2174.58c23.44-1.26,134-9.72,221.64-102.54,27.9-36.6,53-37.56,100.89-195.4,66.71-219.83,93.87-348.67,66.36-555.19-6.19-46.44-9.33-75.1-23.61-113.48-34.07-91.6-102.17-148.67-238.35-262.81C840.77,922,799.61,888.88,739.25,864c-19.32-8-33.72-12.27-59.28-19.88-74.38-22.18-111.57-33.27-126.35-17.53-16.72,17.8.86,61.08,9.85,83.22C585.2,963.3,614,975.3,608.69,988.11c-11.52,27.87-170.22,25.1-262.57-72.22-32-33.74-65.15-71.15-54.75-90.48,15-28,74.78-13.3,119.48,3.41,76.93,28.77,77.22,94.26,148.72,163,87.81,84.47,203.14,97.06,320.55,109.88,92.7,10.12,162.34,17.73,182.78-16.53,32-53.59-73.72-180.63-161.92-254.78C724,681.64,487.7,636.71,478.44,658.23c-5.71,13.3,64.17,90.12,147.87,99.61,8.31.94,124.26-9.23,152-65.49,24.44-49.63-18-160-74.47-192.83-40.29-23.43-87.43-17.88-87.43-17.88s-25.91,3.55-31,10c-15.44,19.62,34.69,59,76.74,88.85,9.77,7,110.23,76.59,179.83,39.17,79.46-42.72,66.46-196.89,35.53-279.35C865,306.92,830.55,234.78,809.71,239.38a11.62,11.62,0,0,0-6.29,4.28c-29.4,35.65,46.51,496.4,93.21,488.88C924.56,728,923.79,559,942,559.74c.56,0,1.25.21,3.1,1.92C955.13,571,956.7,586,955.42,641c0,0-.58,25.09,0,47.42v0c0,.74.84,19,1.18,33.57,1.26,53.64,18,119.77,86.9,190,42.75-15.28,180.86-70.69,245.89-210.28,99.29-213.09-36.61-483-107-482.72-38.28.16-83.66,80.46-102,127.15-20.2,51.31-15,80.29-29.64,83.91-30.52,7.53-104.69-105-97.29-194.31C955,217.09,963.21,163.41,990,104.2l0-.07a2,2,0,0,1,1-.75c8.58-2.53,39,67.69,49.25,101,29.37,95.7-34.47,126.64-38.88,277.56,0,0-.22,7.42,13.41,184.2a551.18,551.18,0,0,0,31.42,98.2,559.82,559.82,0,0,0,112.9,169.28s41.08-53.39,140.91-101.85C1388.31,814.15,1478.25,776,1509.49,711c31.63-65.8-6-100.5-53.81-173.76-16.91-31.05-54.72-111-31.21-202.12,11.94-46.25,44.54-114.13,77.24-111.67,32,2.41,67.76,72.6,62.89,138.74-7.74,104.9-112.34,128.11-212.66,296.94-17.76,29.9-45.3,81-51.28,150.25a319.57,319.57,0,0,0,1.28,66.73c-89.28,271.75-101,345.95-88.74,351,28.17,11.54,247.36-316.59,266.46-369.41,2.52-7,12.38-37.5,34.61-43.06a32.31,32.31,0,0,1,3.24-.45c26.14-2,91.59,56.17,113.61,66.52,90.17,42.41,372.87-284.33,330.36-334.24-20.87-24.5-121.53,16-186.39,63.51-77.85,57-92.25,115.49-118.74,109.89-55.82-11.8-57.64-285.49-32.51-289.28,11.51-1.74,67.42,37.86,71.49,92.8,10.21,137.84-154.83,207.62-135.68,323.2,10.73,64.79,62.65,103.41,76.71,114.12,103.78,79.1,254.07,29,251.9,11-.31-2.56-43.22-36.63-88.59-41.48-.39,0-.73-.08-1-.08-165.16-3.29-321.84,85.71-330.84,179.36-20.41,212.37,522.65,222.92,522.4,136.4-.42-139.67-480.22-306.68-706.6,25.31-185.26,271.68-123.32,603-6,780.92,31.71,39.24,99.92,92.8,215.58,123.63"/><path class="cls-3" d="M1133.86,45a1097.09,1097.09,0,0,1,219.49,22.12,1082.79,1082.79,0,0,1,389.27,163.81A1092.34,1092.34,0,0,1,2137.17,710a1083.28,1083.28,0,0,1,63.42,204.33,1099.54,1099.54,0,0,1,0,439,1082.32,1082.32,0,0,1-163.81,389.27,1092.26,1092.26,0,0,1-479.1,394.55,1083.28,1083.28,0,0,1-204.33,63.42,1099.54,1099.54,0,0,1-439,0A1082.32,1082.32,0,0,1,525.1,2036.78a1092,1092,0,0,1-394.55-479.1,1082.58,1082.58,0,0,1-63.43-204.33,1100,1100,0,0,1,0-439A1082.79,1082.79,0,0,1,230.93,525.1,1092.12,1092.12,0,0,1,710,130.55,1082.58,1082.58,0,0,1,914.37,67.12,1097,1097,0,0,1,1133.86,45m0-45C507.65,0,0,507.65,0,1133.86S507.65,2267.72,1133.86,2267.72s1133.86-507.65,1133.86-1133.86S1760.07,0,1133.86,0Z"/></g></g></svg>