<svg xmlns="http://www.w3.org/2000/svg" viewBox="0 0 713.58 713.58"><defs><style>.cls-1{fill:#fff;}.cls-1,.cls-2{stroke:#233328;stroke-miterlimit:10;stroke-width:4px;}.cls-2{fill:none;}</style></defs><title>kreis_hin_Gr</title><g id="Ebene_2" data-name="Ebene 2"><g id="Ebene_2-2" data-name="Ebene 2"><path class="cls-1" d="M173.87,660.85C70.88,598.76,2,485.82,2,356.79,2,160.84,160.84,2,356.79,2S711.58,160.84,711.58,356.79,552.74,711.58,356.79,711.58a353.15,353.15,0,0,1-177.21-47.36"/><path class="cls-2" d="M176.85,662.63h3.64c6.94-.37,39.62-2.87,65.54-30.32a135.93,135.93,0,0,0,26.54-65.54c7.64-52.14,24-141.52,22.92-156.41a139.33,139.33,0,0,0-7-33.56c-43-71.6-108.69-101.72-108.69-101.72s-28.45-12-54.89-11.06a63.92,63.92,0,0,0,16.28,47.77c-5.33.94-49.29,8-77.64-21.36a72.38,72.38,0,0,1-16.19-26.75,64.58,64.58,0,0,1,35.33,1c32.52,10.61,43,44.64,44,48.21,54.31,49.84,134.44,35,148.83,27.6,0,0-70.07-158.81-172.82-126.26,17.49,29.67,72.75,28.45,88.66,10.09-.17-3.93-1.83-31.44-24.79-48.17C153.83,166.88,134.32,165,134.32,165A71,71,0,0,0,157,191.26c22.61,15.69,47.14,12.53,53.18,11.58,2.75-4.21,27.5-43.38,10.51-82.61-5.93-13.68-16.31-35.51-21.91-28.58-35.72,44.22,9.88,128.47,27.56,144.57,2-32.15,9.32-51.81,13.41-51.1a1.59,1.59,0,0,1,.92.57c4.75,5.08,3.83,17.3,3.06,23.47-.07,3.54-.11,8.33,0,14,0,0,.24,5.54.35,9.94.37,15.86,5.31,35.41,25.69,56.19,135.43-55,75.33-198.17,41.09-204.93A113.37,113.37,0,0,0,280.7,122a111.22,111.22,0,0,0-8.76,24.81c-21.33-20.64-28.26-40.73-28.77-57.45C242.73,75,254,50.39,254,50.39,256.45,47.18,268,76.64,268.84,80c1.68,4.13-10.8,47.23-11.5,82.08-.36,18.18,4,54.46,4,54.46s10.55,51.07,42.67,79.1c0,0,12.15-15.79,41.67-30.12,26.1-5.21,52.69-16.49,61.93-35.71,9.35-19.45-1.78-29.71-15.91-51.38-35.28-37.57,6.13-90.87,13.61-92.79,0,0,19,20.25,18.59,41-.58,32.63-41.22,43.79-62.88,87.81-25.44,35.74-10.8,62.1-12.56,63.15C298,311.54,293.61,358.26,320,382.46c39.17,12.73,98.76-111.21,88.38-123.85,58.06,64.81,141.33-26.53,132.89-77.42-29.81-8.65-87.09,41.64-90.22,51.28C420.59,219,428,148,441.39,146.92c3.92-.3,10.13,18.83,12.33,31.56,3.34,20-37.67,71.88-31.31,91.46,21.82,67.13,102.26,41.81,97.17,37,.41-.65-12.82-10.48-26.19-12.27l-.3,0c-48.85-.49-97.83,53-97.83,53,32.94,53.8,137.58,59.55,154.47,40.34-27.45-30.86-120.66-72.05-209,7.48-34.19,91-36.46,178.32-1.78,230.92,9.38,11.6,29.55,27.44,63.75,36.56l133.2.11"/></g></g></svg>