<svg xmlns="http://www.w3.org/2000/svg" viewBox="0 0 789.01 468.91"><defs><style>.cls-1{font-size:278.98px;fill:#f2f2f2;font-family:AvenirNext-UltraLight, Avenir Next;font-weight:100;letter-spacing:-0.06em;}.cls-2{fill:none;stroke:#f2f2f2;stroke-miterlimit:10;stroke-width:5px;}</style></defs><title>logo_wh</title><g id="Ebene_2" data-name="Ebene 2"><g id="Ebene_2-2" data-name="Ebene 2"><text class="cls-1" transform="translate(1.01 366.24)"><tspan xml:space="preserve">w  schn</tspan></text><path class="cls-2" d="M0,367.24c43.83,0,114.7.44,158.54.44,4.13-.22,23.62-1.71,39.08-18.08a81,81,0,0,0,15.82-39.07c4.55-31.09,14.29-84.38,13.66-93.26a82.57,82.57,0,0,0-4.16-20c-25.65-42.69-64.8-60.65-64.8-60.65s-17-7.15-32.73-6.59a38,38,0,0,0,9.71,28.48c-3.18.56-29.39,4.78-46.3-12.73a43.27,43.27,0,0,1-9.65-16,38.55,38.55,0,0,1,21.07.61c19.39,6.32,25.6,26.61,26.22,28.74,32.38,29.72,88.74,16.46,88.74,16.46s-41.78-94.69-103-75.28c10.43,17.69,43.38,17,52.87,6-.11-2.34-1.09-18.75-14.78-28.72C142.64,72.1,131,71,131,71a42.31,42.31,0,0,0,13.53,15.66c13.48,9.36,28.1,7.48,31.7,6.91,1.64-2.51,16.4-25.86,6.27-49.25-3.54-8.16-9.72-21.18-13.06-17-21.3,26.36,5.89,76.59,16.43,86.19,1.19-19.16,5.56-30.89,8-30.47a1,1,0,0,1,.54.34c2.84,3,2.29,10.32,1.83,14,0,2.11-.07,5,0,8.36,0,0,.15,3.3.21,5.92.22,9.46,3.17,21.12,15.32,33.5,80.75-32.81,44.92-118.15,24.5-122.18a67.34,67.34,0,0,0-18,22.42,66.6,66.6,0,0,0-5.23,14.79c-12.72-12.3-16.85-24.28-17.15-34.26-.26-8.53,6.44-23.21,6.44-23.21,1.48-1.92,8.39,15.64,8.86,17.67,1,2.46-6.44,28.16-6.85,48.94-.22,10.84,2.36,32.47,2.36,32.47s6.29,30.45,25.45,47.16c0,0,7.24-9.41,24.84-17.95,15.56-3.11,31.42-9.84,36.92-21.29C299.51,98,292.87,91.93,284.45,79c-21-22.4,3.65-54.18,8.11-55.32,0,0,11.31,12.07,11.09,24.46-.34,19.45-24.58,26.1-37.49,52.35-15.17,21.31-6.44,37-7.49,37.66-30.1,20.19-32.69,48.05-17,62.47,23.35,7.59,58.88-66.3,52.69-73.84C329,165.44,378.65,111,373.62,80.63c-17.77-5.16-51.92,24.83-53.79,30.57-18.14-8-13.71-50.39-5.73-51,2.33-.18,6,11.23,7.35,18.81,2,11.91-22.47,42.86-18.67,54.53,13,40,61,24.93,57.93,22.06.25-.38-7.64-6.24-15.61-7.32h-.18c-29.13-.29-58.33,31.62-58.33,31.62,19.64,32.08,82,35.51,92.1,24.05-16.37-18.4-71.94-42.95-124.58,4.46-20.39,54.28-21.74,106.32-1.06,137.69,5.59,6.92,17.61,16.36,38,21.79,109.17.1,430.58.28,430.58.28"/><line class="cls-2" x1="718.15" y1="368.16" x2="789.01" y2="368.16"/></g></g></svg>