<svg xmlns="http://www.w3.org/2000/svg" viewBox="0 0 2758.24 1079.71"><defs><style>.cls-1{fill:none;stroke:#f2f2f2;stroke-linecap:round;stroke-miterlimit:10;stroke-width:45px;}.cls-2{font-size:160px;fill:#757875;font-family:Roboto-Thin, Roboto;font-weight:200;}</style></defs><g id="Ebene_2" data-name="Ebene 2"><g id="Ebene_1-2" data-name="Ebene 1"><path class="cls-1" d="M981,147.25l-13.65,20.31"/><path class="cls-1" d="M534.15,233.83a373.8,373.8,0,0,0-70.29,55.64c-36.62,37.14-51.57,68.93-64.75,97-9.8,20.86-16.07,39.25-9.25,58.82,1.9,5.45,6.17,17.7,18.5,23.85,8.38,4.18,23.64,7.11,59.2-7.95,47.31-20,76.32-48.84,105.44-77.9,38.45-38.38,66.17-66,71.21-77.72.61-1.4,3.07-7.62,6.77-7.75,2.34-.08,4.85,2.3,5.47,4.7,1.14,4.39-4.05,8.67-7.73,11.91-8.75,7.7-15.62,16.83-23.51,25.19-9.69,10.26-14.53,15.4-18,22.7-8.68,18.06-3.76,35.51-1.93,41,2.22,6.65,7.07,21.19,23.19,31,15.11,9.2,31.46,9,38.07,8.81,33-.84,56-21.19,73.46-36.68,26.57-23.52,37.32-47.41,44.17-63.13,8-18.46,14.94-34.94,9.43-55a67.25,67.25,0,0,0-13.89-25.6"/><path class="cls-1" d="M888.39,259.52a409.53,409.53,0,0,0-38.75,39.68c-11.21,13.18-29.48,34.91-45.34,66.6C790.16,394,782.22,407,782.86,423.9c.55,14.29,5.33,20.85,7.42,23.38,13.51,16.28,41.05,16.29,47,16.29,19.3,0,37.86-9.91,74.2-29.75,40.43-22.09,59.75-38,65.13-42.51,7.31-6.14,13-11.54,25.55-24.09,37.66-37.8,57.28-56.11,65.13-68.73,11.77-18.92,26.39-36.46,38.33-55.3,1.24-2,5.52-8.78,13.4-10.45,4-.84,9.23-.47,10.29,1.61,1.29,2.54-4.32,6.53-9.35,11s-9.86,11.06-19.64,24.38c-8.8,12-20,27.25-19.45,45.07.14,4.77,1,6.38,17.16,39.51,13.53,27.8,14.78,30.49,16.55,35.82,5.13,15.39,9.11,27.33,6.13,42.67-3.81,19.62-16.62,32.57-22.07,37.93-3,3-13.47,12.86-31.26,20.55-8.81,3.81-30.85,13-57.62,8.95-10.19-1.54-29.57-4.48-34.33-16.33-3.38-8.4,1.79-18.35,8.58-24.23,12.6-10.9,32.74-9.47,45.36-9,59.29,2.44,115.37-8.44,150.19-21.07,11.9-4.31,28.45-10.45,46-23.18,15.84-11.51,28.07-25.2,44.14-43.19,6.64-7.45,7.4-8.74,16.8-19.21,13.94-15.53,21.09-23.44,29.78-30.84,10.36-8.81,19.07-14.22,29.77-20.86a360.36,360.36,0,0,1,38.89-20.76c15.07-6.94,24.49-10.1,33.3-12.32,11.35-2.85,18.22-3.28,24.93-2.43a46.13,46.13,0,0,1,17.35,5.63c3.2,1.87,8,4.75,10.85,10.18a22,22,0,0,1,2.12,7.67c1,13.24-16.06,29-17.45,30.25"/><path class="cls-1" d="M1263.05,370.63c-3.6,5.62-9.45,17.66-9.2,28,.61,24.71,10.08,37.74,13.2,43.92,11.2,22.19,43.23,27.52,58,29.4,9.73,1.24,32.24,3.14,66.42-5.6a253.16,253.16,0,0,0,85.32-39.74c61.32-44.12,124.62-86.19,185.7-130.57,105.36-76.57,134.66-86.79,188.3-142.85,11.28-11.79,41.78-34.07,59.73-72.54,3.57-7.65,12.1-16.8,10.39-29a32.76,32.76,0,0,0-13-21.2c-11.4-8.45-25.53-8.11-33.76-7.82-29,1.05-50.66,15.91-59.74,22.32-57.51,40.62-96.09,84.82-96.09,84.82-25.67,29.4-42.25,52.53-74,97.1-15.48,21.71-32.74,45.91-50.65,73.65-10.09,15.63-104.06,156.82-89.6,165.18,4.86,2.81,17.64-11.9,79.21-58,10.39-7.79,36.68-27.34,63.63-45.75,44.37-30.32,34.1-19.73,93.5-58,0,0,17-10.94,51.58-26a125,125,0,0,1,35.49-8.37c12.19-1.09,16.61.32,19.46,2.46,6.09,4.58,5.54,12.88,5.15,18.7a52.88,52.88,0,0,1-8.58,25.08c-15.4,23.18-35.75,44.08-47.51,56.08-19.29,19.68-26.35,26.75-32.63,39.85-4.83,10.08-10.38,22.09-4,31.48,7.36,10.85,26.28,11.78,36.63,12.3,13.64.67,30.3-1.07,57.24-11.81,35.07-14,58.16-31.51,77.27-46.24,20.1-15.48,31.18-24,43.5-38.86,18.24-21.95,20.08-34.67,40.07-56.08a189.49,189.49,0,0,1,33.2-28c8-5.63,10.3-6.37,10.88-5.9,1.27,1-4.83,8.81-10.88,14.76a88.16,88.16,0,0,1-14.88,11.8c-27.11,16.88-85.82,103-91,110.68-18,26.51-35.71,47.6-32.63,49.69,1,.68,3.92-1,9.73-4.43a76.83,76.83,0,0,0,18.89-15.25c8.49-9.67,34.28-30.06,85.86-70.84,41.85-33.08,71.8-52,82.42-58.53,0,0,23.55-14.57,60.11-31,0,0,21.65-13.14,58.51-17.67,5.16-.63,17.19.43,23.91,4.88a51.32,51.32,0,0,1,8.48,7.33c3.43,3.71,5.85,6.33,7,10.19,1.39,4.87-.11,9-2.57,15.69a44.52,44.52,0,0,1-9.14,15.85c-16.56,18-38.43,25.14-63.65,48.58a184.32,184.32,0,0,0-13.7,14.28c-13.72,15.64-20.58,23.46-22.64,33.31-3,14.2,3.85,30.31,14.42,41.2,11,11.31,33.7,8.63,52.66,6.4,32.89-3.88,56.21-15.79,72.12-24.11,28.33-14.8,48.34-32.11,63-44.76,7.24-6.27,13.07-11.77,17.17-15.74"/><text class="cls-2" transform="translate(0 959.39)">Manufaktur nachhaltiger Digitalisierung</text><line class="cls-1" x1="749.73" y1="674.74" x2="2008.51" y2="674.74"/></g></g></svg>