<svg xmlns="http://www.w3.org/2000/svg" viewBox="0 0 2029.25 523.73"><defs><style>.cls-1{fill:none;stroke:#446650;stroke-linecap:round;stroke-miterlimit:10;stroke-width:45px;}</style></defs><g id="Ebene_2" data-name="Ebene 2"><g id="Ebene_1-2" data-name="Ebene 1"><path class="cls-1" d="M616.47,147.25l-13.66,20.31"/><path class="cls-1" d="M169.66,233.83a373.93,373.93,0,0,0-70.3,55.64c-36.61,37.14-51.56,68.93-64.74,97-9.81,20.86-16.08,39.25-9.25,58.82,1.9,5.45,6.17,17.7,18.5,23.85,8.38,4.18,23.64,7.11,59.19-7.95,47.32-20,76.33-48.84,105.44-77.9,38.46-38.38,66.17-66,71.22-77.72.6-1.4,3.06-7.62,6.76-7.75,2.35-.08,4.86,2.3,5.48,4.7,1.13,4.39-4,8.67-7.73,11.91-8.75,7.7-15.63,16.83-23.52,25.19-9.68,10.26-14.53,15.4-18,22.7-8.68,18.06-3.76,35.51-1.94,41,2.22,6.65,7.08,21.19,23.2,31,15.11,9.2,31.45,9,38.07,8.81,32.95-.84,55.95-21.19,73.45-36.68C402,382.87,412.79,359,419.64,343.26c8-18.46,14.93-34.94,9.43-55a67.39,67.39,0,0,0-13.9-25.6"/><path class="cls-1" d="M523.9,259.52a408.36,408.36,0,0,0-38.75,39.68c-11.22,13.18-29.48,34.91-45.34,66.6C425.67,394,417.72,407,418.37,423.9c.55,14.29,5.32,20.85,7.42,23.38,13.5,16.28,41,16.29,47,16.29,19.31,0,37.87-9.91,74.2-29.75,40.43-22.09,59.76-38,65.13-42.51,7.31-6.14,13-11.54,25.56-24.09,37.65-37.8,57.28-56.11,65.13-68.73,11.76-18.92,26.38-36.46,38.32-55.3,1.25-2,5.52-8.78,13.4-10.45,4-.84,9.24-.47,10.29,1.61,1.29,2.54-4.32,6.53-9.35,11s-9.86,11.06-19.64,24.38c-8.8,12-20,27.25-19.45,45.07.15,4.77,1,6.38,17.16,39.51,13.54,27.8,14.78,30.49,16.56,35.82,5.12,15.39,9.1,27.33,6.13,42.67-3.81,19.62-16.63,32.57-22.07,37.93a102.89,102.89,0,0,1-31.26,20.55c-8.82,3.81-30.85,13-57.63,8.95-10.18-1.54-29.56-4.48-34.32-16.33-3.38-8.4,1.79-18.35,8.58-24.23,12.59-10.9,32.73-9.47,45.36-9,59.29,2.44,115.36-8.44,150.18-21.07,11.9-4.31,28.45-10.45,46-23.18,15.84-11.51,28.07-25.2,44.13-43.19,6.65-7.45,7.41-8.74,16.8-19.21,13.95-15.53,21.1-23.44,29.79-30.84,10.35-8.81,19.06-14.22,29.76-20.86a362.49,362.49,0,0,1,38.89-20.76c15.07-6.94,24.5-10.1,33.31-12.32,11.35-2.85,18.22-3.28,24.93-2.43a46.13,46.13,0,0,1,17.35,5.63c3.19,1.87,8,4.75,10.84,10.18a22.15,22.15,0,0,1,2.13,7.67c1,13.24-16.07,29-17.45,30.25"/><path class="cls-1" d="M898.56,370.63c-3.6,5.62-9.46,17.66-9.2,28,.6,24.71,10.08,37.74,13.2,43.92,11.2,22.19,43.23,27.52,58,29.4,9.74,1.24,32.25,3.14,66.43-5.6a253,253,0,0,0,85.31-39.74c61.33-44.12,124.63-86.19,185.7-130.57,105.37-76.57,134.66-86.79,188.3-142.85,11.28-11.79,41.79-34.07,59.74-72.54,3.57-7.65,12.1-16.8,10.39-29a32.76,32.76,0,0,0-13-21.2c-11.41-8.45-25.53-8.11-33.76-7.82-29,1.05-50.67,15.91-59.74,22.32-57.51,40.62-96.1,84.82-96.1,84.82-25.66,29.4-42.25,52.53-74,97.1-15.48,21.71-32.73,45.91-50.64,73.65-10.1,15.63-104.07,156.82-89.61,165.18,4.86,2.81,17.64-11.9,79.22-58,10.39-7.79,36.68-27.34,63.63-45.75,44.37-30.32,34.1-19.73,93.5-58,0,0,17-10.94,51.58-26a124.91,124.91,0,0,1,35.49-8.37c12.18-1.09,16.61.32,19.46,2.46,6.08,4.58,5.53,12.88,5.15,18.7a53,53,0,0,1-8.59,25.08c-15.4,23.18-35.74,44.08-47.51,56.08-19.29,19.68-26.34,26.75-32.62,39.85-4.84,10.08-10.38,22.09-4,31.48,7.36,10.85,26.29,11.78,36.63,12.3,13.64.67,30.31-1.07,57.24-11.81,35.08-14,58.16-31.51,77.28-46.24,20.09-15.48,31.17-24,43.5-38.86,18.24-21.95,20.07-34.67,40.07-56.08a189.13,189.13,0,0,1,33.2-28c8-5.63,10.29-6.37,10.87-5.9,1.28,1-4.83,8.81-10.87,14.76a88.47,88.47,0,0,1-14.89,11.8c-27.1,16.88-85.82,103-91,110.68-18,26.51-35.71,47.6-32.62,49.69,1,.68,3.91-1,9.73-4.43a77.08,77.08,0,0,0,18.89-15.25c8.48-9.67,34.27-30.06,85.86-70.84,41.84-33.08,71.79-52,82.42-58.53,0,0,23.55-14.57,60.1-31,0,0,21.66-13.14,58.51-17.67,5.17-.63,17.19.43,23.92,4.88a51.77,51.77,0,0,1,8.48,7.33c3.43,3.71,5.84,6.33,6.94,10.19,1.4,4.87-.1,9-2.57,15.69a44.32,44.32,0,0,1-9.13,15.85c-16.57,18-38.44,25.14-63.65,48.58a184.82,184.82,0,0,0-13.71,14.28c-13.72,15.64-20.58,23.46-22.63,33.31-3,14.2,3.84,30.31,14.41,41.2,11,11.31,33.71,8.63,52.66,6.4,32.9-3.88,56.22-15.79,72.13-24.11,28.32-14.8,48.34-32.11,63-44.76,7.24-6.27,13.08-11.77,17.17-15.74"/></g></g></svg>